# xmcd
#
# Track frame offsets:
#	150
#	21217
#	42402
#	60100
#	85707
#	107310
#	131017
#	152822
#	172145
#	189625
#
# Disc length: 2821 seconds
#
# Revision: 1
# Processed by: cddbd v1.5PL3 Copyright (c) Steve Scherf et al.
# Submitted via: CDex 1.50Beta5
#
DISCID=780b030a
DTITLE=稲垣潤一 - Edge of Time
DYEAR=1988
DGENRE=Pop
TTITLE0=1・2・3
TTITLE1=ひとつの椅子
TTITLE2=September Kiss
TTITLE3=サザンクロス
TTITLE4=時の岸辺
TTITLE5=She is a star
TTITLE6=Money Girl
TTITLE7=Oh Darling
TTITLE8=Slow Dancin’
TTITLE9=君のためにバラードを
EXTD=
EXTT0=
EXTT1=
EXTT2=
EXTT3=
EXTT4=
EXTT5=
EXTT6=
EXTT7=
EXTT8=
EXTT9=
PLAYORDER=
